<svg width="188" height="224" viewBox="0 0 188 224" fill="none" xmlns="http://www.w3.org/2000/svg">
<g clip-path="url(#clip0_760_86783)">
<path d="M94.0066 192.182C60.2091 192.182 32.707 156.208 32.707 112C32.707 67.7917 60.2091 31.8057 94.0066 31.8057C127.804 31.8057 155.306 67.7802 155.306 111.988C155.306 156.196 127.804 192.171 94.0066 192.171V192.182ZM94.0066 33.533C61.1626 33.533 34.4302 68.7244 34.4302 111.988C34.4302 155.252 61.1512 190.444 94.0066 190.444C126.862 190.444 153.583 155.241 153.583 111.988C153.583 68.736 126.851 33.533 94.0066 33.533Z" fill="#BDA360"/>
<path d="M94.0057 224C42.1722 224 0 173.758 0 112C0 50.2422 42.1722 0 94.0057 0C145.839 0 188.011 50.2422 188.011 112C188.011 173.758 145.839 224 94.0057 224ZM94.0057 1.72733C43.1142 1.72733 1.72319 51.198 1.72319 112C1.72319 172.802 43.1142 222.273 94.0057 222.273C144.897 222.273 186.288 172.802 186.288 112C186.288 51.198 144.886 1.72733 94.0057 1.72733Z" fill="#BDA360"/>
<path d="M22.1379 166.791C21.6554 167.378 21.3222 168.092 20.9776 168.979L19.8633 166.561L32.948 152.673L34.2117 155.414C33.5339 155.448 32.3047 155.989 31.1789 157.175L27.5142 161.068C28.3988 162.553 29.3293 164.05 30.3288 165.49L31.9141 165.374C36.2106 165.029 37.5087 164.096 38.0257 163.716L39.1745 166.227L22.1264 166.802L22.1379 166.791ZM27.0662 161.528L22.8042 166.065L28.9387 165.605L27.0662 161.528Z" fill="#BDA360"/>
<path d="M29.8929 140.72C30.743 144.186 29.4104 146.915 25.6654 147.848L16.7278 150.059C15.579 150.347 15.1194 150.485 14.12 151.959L13.1205 147.906C14.6714 148.723 15.1424 148.631 16.3027 148.343L24.8382 146.224C28.1812 145.395 29.33 143.207 28.6752 140.57C28.0893 138.209 26.6533 136.402 22.7245 137.576L15.7283 139.706C13.7179 140.305 12.8793 140.835 11.6271 141.871L10.8574 138.774C12.4313 139.039 13.4882 139.108 15.3607 138.647L23.184 136.712C27.1358 135.734 29.1577 137.818 29.8699 140.72H29.8929Z" fill="#BDA360"/>
<path d="M23.9528 126.567L12.2466 127.27C11.0633 127.339 10.5808 127.396 9.34014 128.663L9.14484 125.473C8.71979 118.345 11.9479 114.269 17.1864 113.958C23.5162 113.578 26.5261 119.9 26.8018 124.598L26.9856 127.604C25.607 126.498 25.1246 126.498 23.9413 126.567H23.9528ZM17.4391 115.846C12.9473 116.111 9.76519 119.117 9.86858 125.635L26.1125 124.656C25.4577 118.783 22.2756 115.547 17.4391 115.835V115.846Z" fill="#BDA360"/>
<path d="M11.3499 99.9551C10.6376 100.208 9.98281 100.646 9.22461 101.222L9.51181 98.5732L27.8695 93.4258L27.5479 96.4198C26.9505 96.0974 25.6179 95.9247 24.044 96.3622L18.8975 97.8132C18.8975 99.5405 18.9204 101.302 19.0353 103.053L20.4598 103.767C24.3198 105.69 25.9051 105.563 26.5484 105.506L26.2497 108.246L11.3499 99.9321V99.9551ZM18.2771 97.9974L12.2919 99.6787L17.7831 102.454L18.2656 97.9974H18.2771Z" fill="#BDA360"/>
<path d="M31.8211 79.5955C30.1668 85.123 24.8824 87.1958 20.4365 85.86C15.715 84.4435 12.7167 79.6301 14.3135 74.2984C14.773 72.7668 15.5542 71.3619 16.232 70.5098L18.7593 70.717C16.7604 71.9377 15.4163 73.3426 14.8304 75.3233C13.7506 78.9391 15.9448 82.532 20.5055 83.9023C26.169 85.5951 30.2128 82.578 31.1663 79.3767C31.6488 77.7761 31.4994 76.0372 29.7188 72.9971L32.384 74.5863C32.4529 75.853 32.4759 77.4651 31.8326 79.607L31.8211 79.5955Z" fill="#BDA360"/>
<path d="M21.9659 57.854L27.4227 60.6753L29.5939 56.4606L30.7427 57.7158C29.6973 58.7407 28.8012 59.8231 27.9626 60.9516L36.4292 65.3391C37.4517 62.5869 38.1984 60.3528 38.6809 57.8885L40.1283 59.7195L35.694 68.3216C35.0737 66.6633 34.6601 66.41 33.6032 65.8688L23.1836 60.468C22.1268 59.9152 21.6902 59.7195 19.9785 60.1801L24.5048 51.4053L25.6765 53.0405C24.4129 54.3878 23.2756 55.9309 21.9774 57.854H21.9659Z" fill="#BDA360"/>
<path d="M57.0601 39.6249C52.7981 43.5172 47.2035 42.5499 44.0788 39.0952C40.7587 35.4448 40.6783 29.7677 44.791 26.0136C45.9743 24.9427 47.3643 24.1481 48.3867 23.7681L50.4431 25.2421C48.0995 25.2536 46.227 25.7603 44.6991 27.1536C41.9075 29.6986 41.942 33.9132 45.1356 37.437C49.1105 41.8244 54.1307 41.3292 56.6006 39.0722C57.8298 37.9437 58.611 36.3891 58.6455 32.8538L60.1044 35.5945C59.5185 36.7115 58.6914 38.1049 57.0486 39.6134L57.0601 39.6249Z" fill="#BDA360"/>
<path d="M62.2302 17.999L68.4452 30.5739C70.513 29.1575 71.995 27.9369 73.7871 26.2556L73.879 28.6739L66.0902 32.5431C66.5727 30.8388 66.3774 30.3897 65.8489 29.3302L60.6449 18.7935C60.1164 17.7226 59.8867 17.308 58.2324 16.6516L61.989 14.7861C61.5065 16.4904 61.7018 16.9395 62.2302 17.999Z" fill="#BDA360"/>
<path d="M86.4812 25.7028C82.9544 26.2325 80.3696 24.6434 79.7952 20.8087L78.4396 11.6884C78.2673 10.5138 78.1639 10.0417 76.7969 8.91317L80.921 8.29133C79.9675 9.76531 80.0135 10.249 80.1858 11.4236L81.484 20.1408C81.9894 23.5494 84.0573 24.9082 86.7339 24.5052C89.1349 24.1482 91.0649 22.8815 90.2607 18.8511L88.8018 11.6654C88.3882 9.6041 87.9517 8.7174 87.0326 7.37009L90.1803 6.89795C89.7668 8.44103 89.5944 9.50046 89.8816 11.4005L91.0764 19.3923C91.6737 23.4227 89.4221 25.2537 86.4697 25.6913L86.4812 25.7028Z" fill="#BDA360"/>
<path d="M102.633 7.45068L106.872 8.30283C111.054 9.14347 112.111 11.2393 111.778 12.909C111.41 14.7515 109.262 16.0413 106.275 16.0873C110.273 17.2504 111.341 19.7377 110.939 21.753C110.227 25.2767 106.723 26.3592 102.335 25.4725L99.1641 24.8391C100.589 23.7797 100.703 23.3191 100.945 22.1445L103.254 10.629C103.484 9.4659 103.552 8.98225 102.656 7.4622L102.633 7.45068ZM109.078 21.4881C109.434 19.7032 108.756 17.1583 103.943 16.1104L102.22 24.724C107.24 25.6567 108.619 23.7682 109.078 21.4766V21.4881ZM109.94 12.7709C110.273 11.1357 109.549 9.56954 105.414 8.72891L104.046 15.5346C108.021 16.0297 109.584 14.5097 109.94 12.7709Z" fill="#BDA360"/>
<path d="M135.627 20.2905L139.016 22.9736C142.371 25.6222 142.359 27.9714 141.314 29.3072C140.154 30.7812 137.661 30.9654 134.961 29.6411C137.994 32.497 137.833 35.2031 136.558 36.8153C134.341 39.6366 130.711 39.0033 127.207 36.228L124.668 34.2243C126.414 33.9249 126.736 33.5679 127.471 32.6352L134.731 23.4112C135.467 22.4785 135.742 22.0869 135.627 20.3136V20.2905ZM135.03 35.7328C136.156 34.3049 136.696 31.7254 132.882 28.6047L127.448 35.5025C131.503 38.6117 133.594 37.5523 135.03 35.7213V35.7328ZM139.74 28.3514C140.774 27.0386 140.843 25.3228 137.523 22.6973L133.238 28.1441C136.558 30.3896 138.649 29.7448 139.74 28.3514Z" fill="#BDA360"/>
<path d="M144.933 39.9474C149.011 36.9879 154.721 37.9092 157.673 41.9972C160.625 46.0852 159.706 51.8084 155.651 54.7564C151.538 57.7389 145.794 56.8407 142.853 52.7527C139.913 48.6647 140.843 42.9184 144.933 39.9589V39.9474ZM154.215 53.4436C158.086 50.6338 159.419 45.6131 156.961 42.2045C154.847 39.268 150.413 38.3237 146.38 41.2487C142.451 44.1045 141.119 49.1253 143.577 52.5339C145.691 55.4703 150.16 56.3916 154.215 53.4436Z" fill="#BDA360"/>
<path d="M168.712 63.209C168.069 61.7235 166.771 61.2628 165.335 61.8962C163.692 62.6102 163.37 63.7157 162.555 66.1454C161.486 69.3467 160.901 71.0395 158.821 71.9493C156.087 73.1469 153.273 71.5462 152.239 69.1625C151.722 67.9764 151.48 66.6521 151.48 65.5697L153.537 64.3375C152.664 67.2049 152.882 68.414 153.307 69.4043C154.134 71.3044 155.915 71.5577 157.477 70.8783C159.097 70.1759 159.568 69.0819 160.544 66.1454C161.636 62.875 162.13 61.7235 164.071 60.8828C166.116 59.9961 168.632 60.9634 169.712 63.4508C170.24 64.6599 170.286 65.7194 170.148 66.4333L168.322 67.5043C169.183 65.4199 169.172 64.2569 168.724 63.209H168.712Z" fill="#BDA360"/>
<path d="M158.683 88.9114C157.339 83.2919 160.877 78.8469 165.404 77.7644C170.194 76.6129 175.191 79.2614 176.489 84.6853C176.857 86.2398 176.88 87.852 176.719 88.923L174.433 90.0169C175.547 87.9557 176.007 86.0671 175.524 84.0519C174.651 80.3784 170.941 78.3747 166.323 79.4917C160.567 80.8736 158.591 85.5144 159.372 88.7733C159.763 90.3969 160.751 91.8249 163.818 93.5637L160.716 93.5292C160.027 92.4697 159.2 91.0764 158.672 88.9114H158.683Z" fill="#BDA360"/>
<path d="M164.152 101.636L175.869 101.014C177.053 100.945 177.535 100.899 178.787 99.644L179.006 103.847C177.627 102.73 177.145 102.73 175.961 102.788L171.768 103.007L172.17 110.572L176.363 110.342C177.547 110.284 178.029 110.227 179.281 108.972L179.5 113.175C178.121 112.058 177.639 112.058 176.455 112.115L164.738 112.749C163.554 112.806 163.072 112.864 161.82 114.119L161.601 109.916C162.98 111.033 163.462 111.033 164.646 110.975L171.458 110.607C171.171 108.062 170.78 105.563 170.298 103.076L164.244 103.398C163.06 103.467 162.578 103.513 161.326 104.768L161.107 100.565C162.486 101.682 162.968 101.682 164.152 101.625V101.636Z" fill="#BDA360"/>
<path d="M178.051 126.049L171.951 125.381L171.445 130.091L169.929 129.343C170.526 128.007 170.974 126.683 171.353 125.324L161.887 124.299C161.922 127.235 162.025 129.585 162.473 132.06L160.463 130.874L161.497 121.259C162.68 122.583 163.151 122.664 164.334 122.79L175.995 124.057C177.178 124.184 177.66 124.207 179.085 123.17L178.028 132.993L176.339 131.888C177.028 130.183 177.534 128.329 178.062 126.061L178.051 126.049Z" fill="#BDA360"/>
<path d="M174.456 147.41C174.87 145.844 174.134 144.681 172.618 144.278C170.883 143.818 169.953 144.485 167.805 145.89C164.99 147.744 163.485 148.7 161.279 148.124C158.396 147.364 157.178 144.37 157.833 141.837C158.166 140.593 158.787 139.396 159.453 138.543L161.831 138.854C159.372 140.559 158.798 141.641 158.522 142.689C157.994 144.693 159.246 145.994 160.877 146.432C162.589 146.881 163.623 146.316 166.219 144.624C169.091 142.735 170.194 142.136 172.25 142.678C174.399 143.242 175.777 145.579 175.088 148.193C174.755 149.472 174.134 150.324 173.583 150.808L171.492 150.52C173.457 149.414 174.169 148.504 174.456 147.399V147.41Z" fill="#BDA360"/>
<path d="M168.987 162.922L163.37 160.446L161.463 164.787L160.245 163.613C161.222 162.519 162.049 161.39 162.818 160.204L154.099 156.358C153.249 159.168 152.64 161.448 152.318 163.935L150.768 162.196L154.662 153.341C155.386 154.965 155.811 155.183 156.902 155.655L167.643 160.388C168.735 160.872 169.183 161.033 170.86 160.48L166.885 169.532L165.61 167.977C166.782 166.561 167.827 164.937 169.01 162.945L168.987 162.922Z" fill="#BDA360"/>
<path d="M76.2332 73.0775L69.1681 65.9839L43.998 90.6962V154.769L51.3848 161.747L58.6222 154.481L55.2792 151.13V116.226L63.8951 107.589H55.6698V81.0347L61.9077 74.7818L64.5614 77.4418V106.956L63.8951 107.589L64.5614 107.578V154.492L72.0286 161.966L79.5762 154.389L76.2332 151.038V73.0775Z" fill="#BDA360"/>
<path d="M147.229 76.8313L139.831 68.9893L126.471 82.3818V76.912L119.015 69.4384L111.812 76.6586C111.812 76.3822 114.879 80.2054 114.879 80.2054V118.333L97.8658 135.388L95.0627 132.578V61.9648L101.818 55.1937L104.563 57.9459V75.2307L116.132 64.0606V54.5143L108.618 47.4092C108.618 47.4092 83.9884 72.2136 83.7012 71.9257V136.136L90.9615 143.414L114.902 119.416V157.705L122.496 165.317L147.138 140.616V110.975L140.566 104.388L147.229 97.709V76.8313ZM135.764 150.6L129.136 157.244L126.643 154.745V118.218L127.206 117.654L126.321 116.767L126.769 83.3146L132.927 77.1423L135.753 79.9751V108.384L132.433 111.712L135.776 115.063V150.611L135.764 150.6Z" fill="#BDA360"/>
<path d="M45.4804 182.394C46.6291 181.438 48.2949 181.657 49.2139 182.797C50.133 183.949 49.9721 185.595 48.8233 186.517C47.6631 187.449 46.0203 187.277 45.0898 186.114C44.1707 184.974 44.3201 183.327 45.4804 182.394Z" fill="#BDA360"/>
<path d="M63.5501 204.032L70.0982 193.138L67.8465 191.779L67.8695 191.733L72.7749 192.01L72.8208 192.033L65.0665 204.942C64.4576 205.967 64.2738 206.738 64.9516 208.327L60.5977 205.702C62.3668 205.552 62.9412 205.045 63.5501 204.02V204.032Z" fill="#BDA360"/>
<path d="M88.4109 203.479C88.0548 204.884 87.0783 206.381 84.2063 208.892L81.1276 211.563C79.6916 212.818 79.3584 213.314 79.6341 214.085L76.5898 213.314L84.6429 206.416C83.0116 207.418 81.5067 207.291 80.691 207.084C77.5548 206.289 76.3946 203.353 77.0149 200.877C77.8191 197.71 80.6336 195.729 84.2638 196.651C87.423 197.457 89.2495 200.14 88.4109 203.479ZM78.9449 201.003C78.2901 203.583 79.5308 205.621 81.633 206.151C84.034 206.761 86.0329 205.356 86.7222 202.604C87.3196 200.22 86.1478 197.86 83.9651 197.307C81.8628 196.777 79.6456 198.194 78.9334 201.003H78.9449Z" fill="#BDA360"/>
<path d="M102.276 201.671C102 199.587 100.748 198.044 98.7492 198.309C97.3707 198.493 96.3023 199.633 95.0156 201.487L95.142 198.735C96.2793 198.125 97.7842 197.699 98.7837 197.56C102.115 197.123 103.953 198.873 104.275 201.28C104.528 203.157 103.655 205.449 101.104 209.341L97.3017 215.133C101.024 214.177 103.85 213.348 106.561 212.45L106.205 214.776L96.084 216.123L99.1743 210.573C101.61 206.209 102.586 203.94 102.287 201.683L102.276 201.671Z" fill="#BDA360"/>
<path d="M115.086 206.968C113.903 204.757 114.524 202.189 116.385 200.531C114.535 200.888 112.72 200.163 111.858 198.527C110.882 196.696 111.33 194.094 114.007 192.666C116.683 191.238 119.084 192.298 120.061 194.14C120.934 195.775 120.52 197.687 119.199 199.023C121.612 198.389 124.082 199.31 125.253 201.521C126.701 204.251 125.426 207.337 122.623 208.845C119.808 210.354 116.534 209.686 115.086 206.957V206.968ZM118.441 195.038C117.407 193.092 115.73 192.528 114.328 193.276C112.927 194.025 112.456 195.741 113.501 197.687C114.432 199.426 116.258 200.289 117.671 199.541C119.073 198.792 119.383 196.789 118.452 195.038H118.441ZM123.507 202.408C122.198 199.955 119.831 199.172 117.981 200.163C116.132 201.153 115.454 203.548 116.764 206.012C118.154 208.627 120.44 209.248 122.289 208.258C124.139 207.268 124.897 205.022 123.507 202.408Z" fill="#BDA360"/>
<path d="M139.279 186.448C138.096 185.538 137.946 183.857 138.865 182.705C139.784 181.554 141.427 181.358 142.576 182.268C143.736 183.2 143.92 184.836 142.989 186.01C142.07 187.162 140.439 187.381 139.279 186.436V186.448Z" fill="#BDA360"/>
</g>
<defs>
<clipPath id="clip0_760_86783">
<rect width="188" height="224" fill="white"/>
</clipPath>
</defs>
</svg>
